<svg width="1600" height="900" viewBox="0 0 1600 900" fill="none" xmlns="http://www.w3.org/2000/svg">
  <rect width="1600" height="900" fill="#071014"/>
  <rect width="1600" height="900" fill="url(#bg)"/>
  <circle cx="220" cy="180" r="220" fill="#E4A86D" fill-opacity="0.22"/>
  <circle cx="1290" cy="200" r="170" fill="#76E9D4" fill-opacity="0.14"/>
  <rect x="96" y="72" width="1408" height="64" rx="24" fill="white" fill-opacity="0.05" stroke="white" stroke-opacity="0.1"/>
  <circle cx="136" cy="104" r="10" fill="url(#accent)"/>
  <rect x="160" y="94" width="184" height="20" rx="10" fill="#F5F3EF"/>
  <rect x="1120" y="94" width="66" height="12" rx="6" fill="#C9D1D2" fill-opacity="0.82"/>
  <rect x="1210" y="94" width="86" height="12" rx="6" fill="#C9D1D2" fill-opacity="0.55"/>
  <rect x="1324" y="94" width="88" height="12" rx="6" fill="#C9D1D2" fill-opacity="0.55"/>
  <rect x="1440" y="94" width="64" height="12" rx="6" fill="#C9D1D2" fill-opacity="0.55"/>

  <rect x="120" y="186" width="112" height="14" rx="7" fill="#FFD1A9"/>
  <rect x="120" y="226" width="650" height="104" rx="20" fill="#F5F3EF"/>
  <rect x="120" y="350" width="612" height="18" rx="9" fill="#C9D1D2" fill-opacity="0.75"/>
  <rect x="120" y="382" width="570" height="18" rx="9" fill="#C9D1D2" fill-opacity="0.55"/>
  <rect x="120" y="430" width="198" height="54" rx="27" fill="url(#accent)"/>
  <rect x="336" y="430" width="172" height="54" rx="27" fill="white" fill-opacity="0.05" stroke="white" stroke-opacity="0.14"/>

  <rect x="1000" y="196" width="390" height="314" rx="32" fill="white" fill-opacity="0.05" stroke="white" stroke-opacity="0.16"/>
  <rect x="1036" y="236" width="96" height="12" rx="6" fill="#FFD1A9"/>
  <rect x="1036" y="274" width="292" height="66" rx="18" fill="#F5F3EF"/>
  <rect x="1036" y="376" width="318" height="1" fill="white" fill-opacity="0.12"/>
  <rect x="1036" y="408" width="122" height="14" rx="7" fill="#F5F3EF"/>
  <rect x="1036" y="434" width="296" height="12" rx="6" fill="#C9D1D2" fill-opacity="0.62"/>
  <rect x="1036" y="470" width="122" height="14" rx="7" fill="#F5F3EF"/>
  <rect x="1036" y="496" width="296" height="12" rx="6" fill="#C9D1D2" fill-opacity="0.62"/>

  <rect x="0" y="560" width="1600" height="1" fill="white" fill-opacity="0.08"/>
  <rect x="120" y="612" width="324" height="196" rx="28" fill="url(#caseA)"/>
  <rect x="476" y="612" width="324" height="196" rx="28" fill="url(#caseB)"/>
  <rect x="832" y="612" width="324" height="196" rx="28" fill="url(#caseC)"/>
  <rect x="1188" y="612" width="292" height="196" rx="28" fill="white" fill-opacity="0.05" stroke="white" stroke-opacity="0.12"/>
  <rect x="1220" y="648" width="140" height="12" rx="6" fill="#FFD1A9"/>
  <rect x="1220" y="684" width="198" height="22" rx="11" fill="#F5F3EF"/>
  <rect x="1220" y="726" width="208" height="12" rx="6" fill="#C9D1D2" fill-opacity="0.72"/>
  <rect x="1220" y="750" width="180" height="12" rx="6" fill="#C9D1D2" fill-opacity="0.48"/>

  <defs>
    <linearGradient id="bg" x1="800" y1="0" x2="800" y2="900" gradientUnits="userSpaceOnUse">
      <stop stop-color="#050B0F"/>
      <stop offset="0.55" stop-color="#091319"/>
      <stop offset="1" stop-color="#081118"/>
    </linearGradient>
    <linearGradient id="accent" x1="126" y1="94" x2="146" y2="114" gradientUnits="userSpaceOnUse">
      <stop stop-color="#E4A86D"/>
      <stop offset="1" stop-color="#FFD1A9"/>
    </linearGradient>
    <linearGradient id="caseA" x1="120" y1="612" x2="444" y2="808" gradientUnits="userSpaceOnUse">
      <stop stop-color="#2B190F"/>
      <stop offset="0.48" stop-color="#111922"/>
      <stop offset="1" stop-color="#0C2328"/>
    </linearGradient>
    <linearGradient id="caseB" x1="476" y1="612" x2="800" y2="808" gradientUnits="userSpaceOnUse">
      <stop stop-color="#0A1520"/>
      <stop offset="0.52" stop-color="#15111A"/>
      <stop offset="1" stop-color="#2A160D"/>
    </linearGradient>
    <linearGradient id="caseC" x1="832" y1="612" x2="1156" y2="808" gradientUnits="userSpaceOnUse">
      <stop stop-color="#10131A"/>
      <stop offset="0.54" stop-color="#0D1A20"/>
      <stop offset="1" stop-color="#1F1114"/>
    </linearGradient>
  </defs>
</svg>
